<svg xmlns="http://www.w3.org/2000/svg" xmlns:xlink="http://www.w3.org/1999/xlink" version="1.1" width="880px" height="560px" viewBox="0 0 880 560" style="background-color: rgb(255, 255, 255);">
<defs>
<marker id="dg-arrow" markerWidth="10" markerHeight="10" refX="8" refY="3.4" orient="auto" markerUnits="userSpaceOnUse">
<path d="M 1 1 L 8 3.4 L 1 5.8 z" fill="#8a8a93" stroke="none"/>
</marker>
</defs>
<g font-family="Pretendard, 'Apple SD Gothic Neo', system-ui, sans-serif">
<g data-cell-id="0">
<g data-cell-id="1">
<g data-cell-id="e-app-gw">
<g><path d="M 170 106 L 170 143 L 290 143 L 290 180" fill="none" stroke="#8a8a93" stroke-width="1.4" marker-end="url(#dg-arrow)" pointer-events="stroke"/></g>
</g>
<g data-cell-id="e-dash-gw">
<g><path d="M 390 106 L 390 143 L 290 143 L 290 180" fill="none" stroke="#8a8a93" stroke-width="1.4" marker-end="url(#dg-arrow)" pointer-events="stroke"/></g>
</g>
<g data-cell-id="e-gw-auth">
<g><path d="M 290 236 L 290 273 L 125 273 L 125 310" fill="none" stroke="#8a8a93" stroke-width="1.4" marker-end="url(#dg-arrow)" pointer-events="stroke"/></g>
</g>
<g data-cell-id="e-gw-core">
<g><path d="M 290 236 L 290 273 L 335 273 L 335 310" fill="none" stroke="#8a8a93" stroke-width="1.4" marker-end="url(#dg-arrow)" pointer-events="stroke"/></g>
</g>
<g data-cell-id="e-core-media">
<g><path d="M 420 338 L 440 338 L 440 338 L 460 338" fill="none" stroke="#8a8a93" stroke-width="1.4" stroke-dasharray="5 4" marker-end="url(#dg-arrow)" pointer-events="stroke"/></g>
<g><text x="440" y="331" text-anchor="middle" font-size="11" fill="#6b6b74">큐</text></g>
</g>
<g data-cell-id="e-auth-db">
<g><path d="M 125 366 L 125 408 L 130 408 L 130 450" fill="none" stroke="#8a8a93" stroke-width="1.4" marker-end="url(#dg-arrow)" pointer-events="stroke"/></g>
</g>
<g data-cell-id="e-core-cache">
<g><path d="M 335 366 L 335 408 L 345 408 L 345 450" fill="none" stroke="#8a8a93" stroke-width="1.4" marker-end="url(#dg-arrow)" pointer-events="stroke"/></g>
</g>
<g data-cell-id="e-media-obj">
<g><path d="M 545 366 L 545 408 L 555 408 L 555 450" fill="none" stroke="#8a8a93" stroke-width="1.4" marker-end="url(#dg-arrow)" pointer-events="stroke"/></g>
</g>
<g data-cell-id="app">
<g><rect x="80" y="50" width="180" height="56" rx="9" ry="9" fill="#ffffff" stroke="#4a4a52" stroke-width="1.4" pointer-events="all"/></g>
<g><text x="170" y="83" text-anchor="middle" font-size="13" fill="#1b1b20">모바일 앱</text></g>
</g>
<g data-cell-id="dash">
<g><rect x="300" y="50" width="180" height="56" rx="9" ry="9" fill="#ffffff" stroke="#4a4a52" stroke-width="1.4" pointer-events="all"/></g>
<g><text x="390" y="83" text-anchor="middle" font-size="13" fill="#1b1b20">웹 대시보드</text></g>
</g>
<g data-cell-id="gw">
<g><rect x="190" y="180" width="200" height="56" rx="9" ry="9" fill="#ffffff" stroke="#4a4a52" stroke-width="1.4" pointer-events="all"/></g>
<g><text x="290" y="213" text-anchor="middle" font-size="13" fill="#1b1b20">API Gateway</text></g>
</g>
<g data-cell-id="svc-auth">
<g><rect x="40" y="310" width="170" height="56" rx="9" ry="9" fill="#ffffff" stroke="#4a4a52" stroke-width="1.4" pointer-events="all"/></g>
<g><text x="125" y="343" text-anchor="middle" font-size="13" fill="#1b1b20">인증 서비스</text></g>
</g>
<g data-cell-id="svc-core">
<g><rect x="250" y="310" width="170" height="56" rx="9" ry="9" fill="#ffffff" stroke="#4a4a52" stroke-width="1.4" pointer-events="all"/></g>
<g><text x="335" y="343" text-anchor="middle" font-size="13" fill="#1b1b20">코어 API</text></g>
</g>
<g data-cell-id="svc-media">
<g><rect x="460" y="310" width="170" height="56" rx="9" ry="9" fill="#ffffff" stroke="#4a4a52" stroke-width="1.4" pointer-events="all"/></g>
<g><text x="545" y="343" text-anchor="middle" font-size="13" fill="#1b1b20">미디어 워커</text></g>
</g>
<g data-cell-id="db">
<g><rect x="40" y="450" width="180" height="56" rx="9" ry="9" fill="#ffffff" stroke="#4a4a52" stroke-width="1.4" pointer-events="all"/></g>
<g><text x="130" y="483" text-anchor="middle" font-size="13" fill="#1b1b20">PostgreSQL</text></g>
</g>
<g data-cell-id="cache">
<g><rect x="260" y="450" width="170" height="56" rx="9" ry="9" fill="#ffffff" stroke="#4a4a52" stroke-width="1.4" pointer-events="all"/></g>
<g><text x="345" y="483" text-anchor="middle" font-size="13" fill="#1b1b20">Redis</text></g>
</g>
<g data-cell-id="obj">
<g><rect x="470" y="450" width="170" height="56" rx="9" ry="9" fill="#ffffff" stroke="#4a4a52" stroke-width="1.4" pointer-events="all"/></g>
<g><text x="555" y="483" text-anchor="middle" font-size="13" fill="#1b1b20">S3</text></g>
</g>
</g>
</g>
</g>
</svg>
