<svg xmlns="http://www.w3.org/2000/svg" xmlns:xlink="http://www.w3.org/1999/xlink" version="1.1" width="880px" height="560px" viewBox="0 0 880 560" style="background-color: rgb(255, 255, 255);">
<defs>
<marker id="dg-arrow" markerWidth="10" markerHeight="10" refX="8" refY="3.4" orient="auto" markerUnits="userSpaceOnUse">
<path d="M 1 1 L 8 3.4 L 1 5.8 z" fill="#8a8a93" stroke="none"/>
</marker>
</defs>
<g font-family="Pretendard, 'Apple SD Gothic Neo', system-ui, sans-serif">
<g data-cell-id="0">
<g data-cell-id="1">
<g data-cell-id="e-cf-alb">
<g><path d="M 230 78 L 260 78 L 260 78 L 290 78" fill="none" stroke="#8a8a93" stroke-width="1.4" marker-end="url(#dg-arrow)" pointer-events="stroke"/></g>
</g>
<g data-cell-id="e-alb-ecs">
<g><path d="M 375 106 L 375 148 L 375 148 L 375 190" fill="none" stroke="#8a8a93" stroke-width="1.4" marker-end="url(#dg-arrow)" pointer-events="stroke"/></g>
</g>
<g data-cell-id="e-ecs-sqs">
<g><path d="M 460 220 L 495 220 L 495 220 L 530 220" fill="none" stroke="#8a8a93" stroke-width="1.4" stroke-dasharray="5 4" marker-end="url(#dg-arrow)" pointer-events="stroke"/></g>
</g>
<g data-cell-id="e-sqs-worker">
<g><path d="M 615 250 L 615 290 L 615 290 L 615 330" fill="none" stroke="#8a8a93" stroke-width="1.4" stroke-dasharray="5 4" marker-end="url(#dg-arrow)" pointer-events="stroke"/></g>
</g>
<g data-cell-id="e-ecs-rds">
<g><path d="M 375 250 L 375 290 L 140 290 L 140 330" fill="none" stroke="#8a8a93" stroke-width="1.4" marker-end="url(#dg-arrow)" pointer-events="stroke"/></g>
</g>
<g data-cell-id="e-ecs-ec">
<g><path d="M 375 250 L 375 290 L 380 290 L 380 330" fill="none" stroke="#8a8a93" stroke-width="1.4" marker-end="url(#dg-arrow)" pointer-events="stroke"/></g>
</g>
<g data-cell-id="e-worker-s3">
<g><path d="M 615 390 L 615 425 L 375 425 L 375 460" fill="none" stroke="#8a8a93" stroke-width="1.4" marker-end="url(#dg-arrow)" pointer-events="stroke"/></g>
</g>
<g data-cell-id="e-worker-cw">
<g><path d="M 615 390 L 615 425 L 615 425 L 615 460" fill="none" stroke="#8a8a93" stroke-width="1.4" marker-end="url(#dg-arrow)" pointer-events="stroke"/></g>
</g>
<g data-cell-id="cf">
<g><rect x="50" y="50" width="180" height="56" rx="9" ry="9" fill="#ffffff" stroke="#4a4a52" stroke-width="1.4" pointer-events="all"/></g>
<g><text x="140" y="83" text-anchor="middle" font-size="13" fill="#1b1b20">CloudFront</text></g>
</g>
<g data-cell-id="alb">
<g><rect x="290" y="50" width="170" height="56" rx="9" ry="9" fill="#ffffff" stroke="#4a4a52" stroke-width="1.4" pointer-events="all"/></g>
<g><text x="375" y="83" text-anchor="middle" font-size="13" fill="#1b1b20">ALB</text></g>
</g>
<g data-cell-id="ecs-api">
<g><rect x="290" y="190" width="170" height="60" rx="9" ry="9" fill="#ffffff" stroke="#4a4a52" stroke-width="1.4" pointer-events="all"/></g>
<g><text x="375" y="217" text-anchor="middle" font-size="13" fill="#1b1b20">ECS Fargate</text><text x="375" y="235" text-anchor="middle" font-size="11" fill="#6b6b74">API</text></g>
</g>
<g data-cell-id="sqs">
<g><rect x="530" y="190" width="170" height="60" rx="9" ry="9" fill="#ffffff" stroke="#4a4a52" stroke-width="1.4" pointer-events="all"/></g>
<g><text x="615" y="225" text-anchor="middle" font-size="13" fill="#1b1b20">SQS</text></g>
</g>
<g data-cell-id="ecs-worker">
<g><rect x="530" y="330" width="170" height="60" rx="9" ry="9" fill="#ffffff" stroke="#4a4a52" stroke-width="1.4" pointer-events="all"/></g>
<g><text x="615" y="357" text-anchor="middle" font-size="13" fill="#1b1b20">ECS Fargate</text><text x="615" y="375" text-anchor="middle" font-size="11" fill="#6b6b74">Worker</text></g>
</g>
<g data-cell-id="rds">
<g><rect x="50" y="330" width="180" height="60" rx="9" ry="9" fill="#ffffff" stroke="#4a4a52" stroke-width="1.4" pointer-events="all"/></g>
<g><text x="140" y="357" text-anchor="middle" font-size="13" fill="#1b1b20">RDS</text><text x="140" y="375" text-anchor="middle" font-size="11" fill="#6b6b74">PostgreSQL</text></g>
</g>
<g data-cell-id="ec">
<g><rect x="290" y="330" width="180" height="60" rx="9" ry="9" fill="#ffffff" stroke="#4a4a52" stroke-width="1.4" pointer-events="all"/></g>
<g><text x="380" y="357" text-anchor="middle" font-size="13" fill="#1b1b20">ElastiCache</text><text x="380" y="375" text-anchor="middle" font-size="11" fill="#6b6b74">Redis</text></g>
</g>
<g data-cell-id="s3">
<g><rect x="290" y="460" width="170" height="56" rx="9" ry="9" fill="#ffffff" stroke="#4a4a52" stroke-width="1.4" pointer-events="all"/></g>
<g><text x="375" y="493" text-anchor="middle" font-size="13" fill="#1b1b20">S3</text></g>
</g>
<g data-cell-id="cw">
<g><rect x="530" y="460" width="170" height="56" rx="9" ry="9" fill="#ffffff" stroke="#4a4a52" stroke-width="1.4" pointer-events="all"/></g>
<g><text x="615" y="493" text-anchor="middle" font-size="13" fill="#1b1b20">CloudWatch</text></g>
</g>
</g>
</g>
</g>
</svg>
